<svg width="100" height="25" viewBox="0 0 100 25" fill="none" xmlns="http://www.w3.org/2000/svg">
<path d="M2.45068 23.1875H23.8257V1.8125H2.45068V23.1875ZM19.7115 10.4433H15.1949V5.92667H19.7115V10.4433ZM6.56402 5.92667H11.0832V14.5567H19.7115V19.0733H6.56402V5.92667ZM37.7449 1.8125C35.631 1.8125 33.5647 2.43932 31.8072 3.61367C30.0496 4.78803 28.6798 6.45719 27.8709 8.41008C27.062 10.363 26.8504 12.5118 27.2627 14.585C27.6751 16.6582 28.693 18.5625 30.1876 20.0572C31.6823 21.5519 33.5866 22.5697 35.6598 22.9822C37.733 23.3945 39.8819 23.1829 41.8348 22.374C43.7877 21.5651 45.4568 20.1952 46.6312 18.4377C47.8055 16.6801 48.4324 14.6137 48.4324 12.5C48.429 9.6665 47.302 6.95003 45.2984 4.94646C43.2948 2.94288 40.5784 1.81581 37.7449 1.8125ZM37.7449 19.0733C36.4448 19.0733 35.1739 18.6878 34.0929 17.9655C33.012 17.2432 32.1694 16.2167 31.6719 15.0155C31.1744 13.8144 31.0442 12.4927 31.2978 11.2176C31.5515 9.9425 32.1775 8.77125 33.0968 7.85195C34.0161 6.93266 35.1874 6.30661 36.4625 6.05298C37.7375 5.79934 39.0592 5.92952 40.2604 6.42703C41.4615 6.92455 42.4881 7.76707 43.2104 8.84808C43.9327 9.929 44.3182 11.1999 44.3182 12.5C44.3155 14.2426 43.6221 15.913 42.39 17.1452C41.1578 18.3773 39.4874 19.0707 37.7449 19.0733ZM86.6774 1.8125C84.5632 1.81234 82.4971 2.43901 80.7394 3.61327C78.9818 4.78752 77.6119 6.45662 76.8028 8.4095C75.9938 10.3623 75.782 12.5113 76.1943 14.5845C76.6065 16.6577 77.6244 18.5622 79.119 20.0569C80.6136 21.5517 82.518 22.5697 84.5915 22.9821C86.664 23.3945 88.8132 23.1829 90.7665 22.3741C92.719 21.5652 94.3882 20.1953 95.5624 18.4377C96.7374 16.6802 97.364 14.6138 97.364 12.5C97.3607 9.66667 96.234 6.9503 94.2307 4.94675C92.2274 2.94319 89.5107 1.81603 86.6774 1.8125ZM86.6774 19.0733C85.3774 19.0735 84.1065 18.6881 83.0252 17.9659C81.9441 17.2437 81.1015 16.2172 80.6038 15.0161C80.1061 13.815 79.9759 12.4932 80.2294 11.2181C80.483 9.943 81.109 8.77167 82.0282 7.85225C82.9475 6.93287 84.119 6.30673 85.394 6.05303C86.669 5.79933 87.9907 5.92946 89.1915 6.42696C90.3932 6.92445 91.4199 7.76697 92.1424 8.848C92.864 9.929 93.2499 11.1999 93.2499 12.5C93.2474 14.2424 92.554 15.9127 91.3215 17.1448C90.0899 18.377 88.4199 19.0705 86.6774 19.0733ZM62.2107 1.8125C60.0969 1.8125 58.0305 2.43932 56.273 3.61367C54.5155 4.78803 53.1456 6.45719 52.3367 8.41008C51.5278 10.363 51.3162 12.5118 51.7285 14.585C52.141 16.6582 53.1588 18.5625 54.6535 20.0572C56.1481 21.5519 58.0525 22.5697 60.1256 22.9822C62.1988 23.3945 64.3477 23.1829 66.3006 22.374C68.2535 21.5651 69.9226 20.1952 71.097 18.4377C72.2714 16.6801 72.8982 14.6137 72.8982 12.5C72.8949 9.6665 71.7678 6.95003 69.7642 4.94646C67.7606 2.94288 65.0442 1.81581 62.2107 1.8125ZM62.2107 19.0733C60.9994 19.0739 59.8115 18.7398 58.7781 18.1079C57.7448 17.476 56.906 16.5709 56.3546 15.4924C55.8033 14.4139 55.5605 13.204 55.6534 11.9963C55.7462 10.7886 56.1709 9.63 56.8806 8.64842C57.5904 7.66688 58.5575 6.90051 59.6753 6.43393C60.7931 5.96733 62.0181 5.81868 63.215 6.00437C64.412 6.19006 65.5344 6.70286 66.4583 7.48618C67.3822 8.2695 68.0717 9.29292 68.4507 10.4433H62.2107V14.5567H68.4507C68.0166 15.8694 67.1803 17.0123 66.0602 17.8229C64.9402 18.6337 63.5934 19.0711 62.2107 19.0733Z" fill="#151515"/>
</svg>
