<svg width="84" height="25" viewBox="0 0 84 25" fill="none" xmlns="http://www.w3.org/2000/svg">
<g clip-path="url(#clip0_145_3406)">
<path d="M12.5 25H16.2952L15.1903 23.8951C14.8973 23.6021 14.4999 23.4375 14.0855 23.4375H12.5C6.45937 23.4375 1.5625 18.5406 1.5625 12.5C1.5625 6.45937 6.45937 1.56251 12.5 1.5625H25C31.0406 1.5625 35.9375 6.45937 35.9375 12.5C35.9375 18.5406 31.0406 23.4375 25 23.4375H20.324C19.7024 23.4375 19.1062 23.1906 18.6667 22.7511L17.3723 21.4566C16.6397 20.7241 15.6461 20.3125 14.6101 20.3125H12.5C8.18525 20.3125 4.6875 16.8148 4.6875 12.5C4.6875 8.18525 8.18525 4.6875 12.5 4.6875H25C29.3148 4.6875 32.8125 8.18525 32.8125 12.5C32.8125 16.8148 29.3148 20.3125 25 20.3125H21.9976C21.3759 20.3125 20.7798 20.0656 20.3403 19.6261L19.0458 18.3316C18.3133 17.5991 17.3197 17.1875 16.2837 17.1875H12.5C9.91119 17.1875 7.8125 15.0888 7.8125 12.5C7.8125 9.91119 9.91119 7.8125 12.5 7.8125H25C27.5888 7.8125 29.6875 9.91119 29.6875 12.5C29.6875 15.0573 27.6397 17.1363 25.0945 17.1866L25.094 17.1875H23.9507C23.3291 17.1875 22.7329 16.9406 22.2934 16.5011L20.9989 15.2066C20.3979 14.6055 19.6211 14.2206 18.7892 14.1017L18.75 14.0625H12.5C11.6371 14.0625 10.9375 13.3629 10.9375 12.5C10.9375 11.6371 11.6371 10.9375 12.5 10.9375H25C25.8629 10.9375 26.5625 11.6371 26.5625 12.5C26.5625 13.3629 25.8629 14.0625 25 14.0625H21.875L22.9799 15.1674C23.2729 15.4604 23.6703 15.625 24.0847 15.625H25C26.7259 15.625 28.125 14.2259 28.125 12.5C28.125 10.7741 26.7259 9.375 25 9.375H12.5C10.7741 9.375 9.375 10.7741 9.375 12.5C9.375 14.2259 10.7741 15.625 12.5 15.625H18.2368C18.8584 15.625 19.4546 15.8719 19.8941 16.3114L21.1886 17.6059C21.9211 18.3384 22.9147 18.75 23.9507 18.75H25.3906V18.738C28.6604 18.5364 31.25 15.8206 31.25 12.5C31.25 9.04825 28.4517 6.25 25 6.25H12.5C9.04825 6.25 6.25 9.04825 6.25 12.5C6.25 15.9518 9.04825 18.75 12.5 18.75H16.2837C16.9053 18.75 17.5014 18.9969 17.941 19.4364L19.2354 20.7309C19.968 21.4634 20.9616 21.875 21.9976 21.875H25C30.1777 21.875 34.375 17.6777 34.375 12.5C34.375 7.32231 30.1777 3.125 25 3.125H12.5C7.32231 3.125 3.125 7.32231 3.125 12.5C3.125 17.6777 7.32231 21.875 12.5 21.875H14.6101C15.2317 21.875 15.8279 22.1219 16.2674 22.5614L17.5619 23.8559C18.2944 24.5884 19.288 25 20.324 25H25C31.9036 25 37.5 19.4036 37.5 12.5C37.5 5.59644 31.9036 -6.03528e-07 25 0L12.5 2.5829e-06C5.59644 3.18643e-06 -6.03528e-07 5.59644 0 12.5C6.03528e-07 19.4036 5.59644 25 12.5 25Z" fill="#151515"/>
</g>
<path d="M46.82 20.585L45.5 19.265L47.403 17.362L47.975 17.021L54.509 10.509L54.762 10.025L56.423 8.375L57.743 9.695L55.906 11.51L55.422 11.774L49.02 18.176L48.624 18.781L46.82 20.585ZM51.616 20.75C50.4353 20.75 49.416 20.4823 48.558 19.947C47.7073 19.4117 47.051 18.671 46.589 17.725C46.127 16.779 45.896 15.6937 45.896 14.469C45.896 13.2223 46.1307 12.1297 46.6 11.191C47.0693 10.2523 47.733 9.52267 48.591 9.002C49.449 8.474 50.4573 8.21 51.616 8.21C52.804 8.21 53.827 8.47767 54.685 9.013C55.543 9.541 56.1993 10.278 56.654 11.224C57.116 12.1627 57.347 13.2443 57.347 14.469C57.347 15.7083 57.116 16.801 56.654 17.747C56.192 18.6857 55.532 19.4227 54.674 19.958C53.816 20.486 52.7967 20.75 51.616 20.75ZM51.616 18.891C52.848 18.891 53.7647 18.4803 54.366 17.659C54.9673 16.8377 55.268 15.7743 55.268 14.469C55.268 13.127 54.9637 12.06 54.355 11.268C53.7463 10.4687 52.8333 10.069 51.616 10.069C50.7873 10.069 50.1053 10.256 49.57 10.63C49.0347 11.004 48.635 11.521 48.371 12.181C48.107 12.841 47.975 13.6037 47.975 14.469C47.975 15.8037 48.283 16.8743 48.899 17.681C49.515 18.4877 50.4207 18.891 51.616 18.891Z" fill="#151515"/>
<path d="M60.9889 20.42V4.25H62.9469V20.42H60.9889Z" fill="#151515"/>
<path d="M67.4674 6.439V4.415H69.4254V6.439H67.4674ZM67.4674 20.42V8.54H69.4254V20.42H67.4674Z" fill="#151515"/>
<path d="M76.9379 20.42L72.6259 8.54H74.6059L77.9389 17.923L81.2609 8.54H83.2519L78.9399 20.42H76.9379Z" fill="#151515"/>
<defs>
<clipPath id="clip0_145_3406">
<rect width="37.5" height="25" fill="white"/>
</clipPath>
</defs>
</svg>
